<svg xmlns="http://www.w3.org/2000/svg" viewBox="0 0 640 430" width="640" height="430" role="img" aria-label="宿舍桌面正常状态">
  <defs>
    <style>
      .title { font: 700 22px "Microsoft YaHei", Arial, sans-serif; fill: #0f172a; }
      .label { font: 600 13px "Microsoft YaHei", Arial, sans-serif; fill: #334155; }
      .object-label { font: 700 14px "Microsoft YaHei", Arial, sans-serif; fill: #0f172a; }
      .tiny { font: 800 18px Arial, sans-serif; fill: #fff; }
      .summary { font: 500 13px "Microsoft YaHei", Arial, sans-serif; fill: #475569; }
    </style>
  </defs>
  <rect width="640" height="430" rx="18" fill="#f8fafc"/>
  <rect x="24" y="48" width="592" height="348" rx="12" fill="#fff" stroke="#cbd5e1" stroke-width="2"/>
  <text x="30" y="30" class="title">S01 宿舍桌面正常状态</text>
  <rect x="548" y="12" width="68" height="28" rx="14" fill="#16a34a"/>
  <text x="582" y="31" text-anchor="middle" font-family="Microsoft YaHei, Arial" font-size="14" font-weight="700" fill="#fff">正常</text>
  <rect x="60" y="80" width="260" height="150" rx="8" fill="#d9f99d" stroke="#65a30d" stroke-width="2"/><text x="70" y="102" class="label">desk</text>
<rect x="390" y="80" width="180" height="170" rx="8" fill="#dbeafe" stroke="#2563eb" stroke-width="2"/><text x="400" y="102" class="label">bed</text>
<rect x="35" y="285" width="80" height="120" rx="8" fill="#fde68a" stroke="#d97706" stroke-width="2"/><text x="45" y="307" class="label">door</text>
  <g><rect x="151" y="117" width="28" height="36" rx="7" fill="#38bdf8" stroke="#0f172a" stroke-width="2"/><path d="M179 129 q18 0 8 18" fill="none" stroke="#0f172a" stroke-width="2"/><text x="165" y="187" text-anchor="middle" class="object-label">水杯</text></g>
<g><rect x="284" y="192" width="32" height="26" rx="4" fill="#f8fafc" stroke="#475569" stroke-width="2"/><circle cx="294" cy="205" r="2.5" fill="#475569"/><circle cx="306" cy="205" r="2.5" fill="#475569"/><text x="300" y="257" text-anchor="middle" class="object-label">插座</text></g>
<g><rect x="69" y="104" width="52" height="32" rx="3" fill="#22c55e" stroke="#14532d" stroke-width="2"/><path d="M95 104 V136" stroke="#14532d" stroke-width="2"/><text x="95" y="172" text-anchor="middle" class="object-label">书本</text></g>
  <text x="34" y="415" class="summary">水杯位于桌面中央，插座远离液体，通道保持畅通。</text>
</svg>
