<svg xmlns="http://www.w3.org/2000/svg" viewBox="0 0 640 430" width="640" height="430" role="img" aria-label="水杯靠近插座">
  <defs>
    <style>
      .title { font: 700 22px "Microsoft YaHei", Arial, sans-serif; fill: #0f172a; }
      .label { font: 600 13px "Microsoft YaHei", Arial, sans-serif; fill: #334155; }
      .object-label { font: 700 14px "Microsoft YaHei", Arial, sans-serif; fill: #0f172a; }
      .tiny { font: 800 18px Arial, sans-serif; fill: #fff; }
      .summary { font: 500 13px "Microsoft YaHei", Arial, sans-serif; fill: #475569; }
    </style>
  </defs>
  <rect width="640" height="430" rx="18" fill="#f8fafc"/>
  <rect x="24" y="48" width="592" height="348" rx="12" fill="#fff" stroke="#cbd5e1" stroke-width="2"/>
  <text x="30" y="30" class="title">S02 水杯靠近插座</text>
  <rect x="548" y="12" width="68" height="28" rx="14" fill="#dc2626"/>
  <text x="582" y="31" text-anchor="middle" font-family="Microsoft YaHei, Arial" font-size="14" font-weight="700" fill="#fff">风险</text>
  <rect x="60" y="80" width="270" height="150" rx="8" fill="#d9f99d" stroke="#65a30d" stroke-width="2"/><text x="70" y="102" class="label">desk</text>
<rect x="390" y="80" width="180" height="170" rx="8" fill="#dbeafe" stroke="#2563eb" stroke-width="2"/><text x="400" y="102" class="label">bed</text>
  <g><rect x="262" y="132" width="28" height="36" rx="7" fill="#38bdf8" stroke="#0f172a" stroke-width="2"/><path d="M290 144 q18 0 8 18" fill="none" stroke="#0f172a" stroke-width="2"/><text x="276" y="202" text-anchor="middle" class="object-label">水杯</text></g>
<g><rect x="289" y="132" width="32" height="26" rx="4" fill="#f8fafc" stroke="#475569" stroke-width="2"/><circle cx="299" cy="145" r="2.5" fill="#475569"/><circle cx="311" cy="145" r="2.5" fill="#475569"/><text x="305" y="197" text-anchor="middle" class="object-label">插座</text></g>
<g><path d="M284 150 L316 145" stroke="#ef4444" stroke-width="4" stroke-dasharray="6 5"/><circle cx="284" cy="150" r="6" fill="#ef4444"/><circle cx="316" cy="145" r="6" fill="#ef4444"/><text x="284" y="202" text-anchor="middle" class="object-label">风险距离</text></g>
  <text x="34" y="415" class="summary">桌角水杯靠近墙面插座，液体与电源区域距离过近。</text>
</svg>
