<svg xmlns="http://www.w3.org/2000/svg" viewBox="0 0 640 430" width="640" height="430" role="img" aria-label="客厅高处边缘花瓶">
  <defs>
    <style>
      .title { font: 700 22px "Microsoft YaHei", Arial, sans-serif; fill: #0f172a; }
      .label { font: 600 13px "Microsoft YaHei", Arial, sans-serif; fill: #334155; }
      .object-label { font: 700 14px "Microsoft YaHei", Arial, sans-serif; fill: #0f172a; }
      .tiny { font: 800 18px Arial, sans-serif; fill: #fff; }
      .summary { font: 500 13px "Microsoft YaHei", Arial, sans-serif; fill: #475569; }
    </style>
  </defs>
  <rect width="640" height="430" rx="18" fill="#f8fafc"/>
  <rect x="24" y="48" width="592" height="348" rx="12" fill="#fff" stroke="#cbd5e1" stroke-width="2"/>
  <text x="30" y="30" class="title">S06 客厅高处边缘花瓶</text>
  <rect x="548" y="12" width="68" height="28" rx="14" fill="#dc2626"/>
  <text x="582" y="31" text-anchor="middle" font-family="Microsoft YaHei, Arial" font-size="14" font-weight="700" fill="#fff">风险</text>
  <rect x="395" y="55" width="145" height="215" rx="8" fill="#fed7aa" stroke="#ea580c" stroke-width="2"/><text x="405" y="77" class="label">cabinet</text>
<rect x="70" y="215" width="230" height="95" rx="8" fill="#ddd6fe" stroke="#7c3aed" stroke-width="2"/><text x="80" y="237" class="label">sofa</text>
<rect x="95" y="330" width="390" height="70" rx="8" fill="#fecdd3" stroke="#e11d48" stroke-width="2"/><text x="105" y="352" class="label">rug</text>
  <g><path d="M493 56 H517 C509 74, 529 98, 505 108 C481 98, 501 74, 493 56 Z" fill="#a855f7" stroke="#581c87" stroke-width="2"/><text x="505" y="130" text-anchor="middle" class="object-label">花瓶</text></g>
<g><path d="M465 105 H535" stroke="#ef4444" stroke-width="5" stroke-dasharray="8 6"/><text x="505" y="157" text-anchor="middle" class="object-label">边缘</text></g>
  <text x="34" y="415" class="summary">花瓶放在高柜边缘，下方是人员活动区域。</text>
</svg>
