<svg xmlns="http://www.w3.org/2000/svg" viewBox="0 0 640 430" width="640" height="430" role="img" aria-label="宿舍垃圾堆积">
  <defs>
    <style>
      .title { font: 700 22px "Microsoft YaHei", Arial, sans-serif; fill: #0f172a; }
      .label { font: 600 13px "Microsoft YaHei", Arial, sans-serif; fill: #334155; }
      .object-label { font: 700 14px "Microsoft YaHei", Arial, sans-serif; fill: #0f172a; }
      .tiny { font: 800 18px Arial, sans-serif; fill: #fff; }
      .summary { font: 500 13px "Microsoft YaHei", Arial, sans-serif; fill: #475569; }
    </style>
  </defs>
  <rect width="640" height="430" rx="18" fill="#f8fafc"/>
  <rect x="24" y="48" width="592" height="348" rx="12" fill="#fff" stroke="#cbd5e1" stroke-width="2"/>
  <text x="30" y="30" class="title">S09 宿舍垃圾堆积</text>
  <rect x="548" y="12" width="68" height="28" rx="14" fill="#dc2626"/>
  <text x="582" y="31" text-anchor="middle" font-family="Microsoft YaHei, Arial" font-size="14" font-weight="700" fill="#fff">风险</text>
  <rect x="75" y="80" width="300" height="150" rx="8" fill="#d9f99d" stroke="#65a30d" stroke-width="2"/><text x="85" y="102" class="label">desk</text>
<rect x="410" y="80" width="145" height="175" rx="8" fill="#dbeafe" stroke="#2563eb" stroke-width="2"/><text x="420" y="102" class="label">bed</text>
  <g><path d="M113 297 L123 255 H149 L157 297 Z" fill="#334155" stroke="#0f172a" stroke-width="2"/><path d="M125 257 Q135 243 147 257" fill="none" stroke="#0f172a" stroke-width="2"/><text x="135" y="327" text-anchor="middle" class="object-label">垃圾袋</text></g>
<g><rect x="171" y="272" width="48" height="40" rx="4" fill="#f97316" stroke="#78350f" stroke-width="2"/><path d="M171 287 H219" stroke="#78350f" stroke-width="2"/><text x="195" y="344" text-anchor="middle" class="object-label">外卖盒</text></g>
<g><rect x="230" y="276" width="44" height="32" rx="2" fill="#f8fafc" stroke="#94a3b8" stroke-width="2"/><path d="M238 289 H264 M238 299 H260" stroke="#94a3b8" stroke-width="2"/><text x="252" y="344" text-anchor="middle" class="object-label">纸团</text></g>
  <text x="34" y="415" class="summary">垃圾袋和外卖盒堆在桌下，影响卫生和管理状态。</text>
</svg>
