<svg xmlns="http://www.w3.org/2000/svg" viewBox="0 0 640 430" width="640" height="430" role="img" aria-label="儿童可触达刀具">
  <defs>
    <style>
      .title { font: 700 22px "Microsoft YaHei", Arial, sans-serif; fill: #0f172a; }
      .label { font: 600 13px "Microsoft YaHei", Arial, sans-serif; fill: #334155; }
      .object-label { font: 700 14px "Microsoft YaHei", Arial, sans-serif; fill: #0f172a; }
      .tiny { font: 800 18px Arial, sans-serif; fill: #fff; }
      .summary { font: 500 13px "Microsoft YaHei", Arial, sans-serif; fill: #475569; }
    </style>
  </defs>
  <rect width="640" height="430" rx="18" fill="#f8fafc"/>
  <rect x="24" y="48" width="592" height="348" rx="12" fill="#fff" stroke="#cbd5e1" stroke-width="2"/>
  <text x="30" y="30" class="title">S10 儿童可触达刀具</text>
  <rect x="548" y="12" width="68" height="28" rx="14" fill="#dc2626"/>
  <text x="582" y="31" text-anchor="middle" font-family="Microsoft YaHei, Arial" font-size="14" font-weight="700" fill="#fff">风险</text>
  <rect x="70" y="85" width="260" height="90" rx="8" fill="#ddd6fe" stroke="#7c3aed" stroke-width="2"/><text x="80" y="107" class="label">sofa</text>
<rect x="180" y="220" width="230" height="100" rx="8" fill="#fef3c7" stroke="#ca8a04" stroke-width="2"/><text x="190" y="242" class="label">coffee table</text>
<rect x="430" y="230" width="100" height="90" rx="8" fill="#dcfce7" stroke="#16a34a" stroke-width="2"/><text x="440" y="252" class="label">toy area</text>
  <g><path d="M195 249 L250 237 L272 243 L246 254 Z" fill="#ef4444" stroke="#7f1d1d" stroke-width="2"/><rect x="188" y="245" width="22" height="8" rx="3" fill="#292524"/><text x="230" y="297" text-anchor="middle" class="object-label">水果刀</text></g>
<g><circle cx="465" cy="262" r="22" fill="#22c55e" stroke="#166534" stroke-width="2"/><circle cx="457" cy="257" r="3" fill="#0f172a"/><circle cx="473" cy="257" r="3" fill="#0f172a"/><text x="465" y="314" text-anchor="middle" class="object-label">玩具</text></g>
  <text x="34" y="415" class="summary">水果刀放在矮茶几边缘，处于儿童可触达位置。</text>
</svg>
