<svg xmlns="http://www.w3.org/2000/svg" viewBox="0 0 640 430" width="640" height="430" role="img" aria-label="水壶电源线旁积水">
  <defs>
    <style>
      .title { font: 700 22px "Microsoft YaHei", Arial, sans-serif; fill: #0f172a; }
      .label { font: 600 13px "Microsoft YaHei", Arial, sans-serif; fill: #334155; }
      .object-label { font: 700 14px "Microsoft YaHei", Arial, sans-serif; fill: #0f172a; }
      .tiny { font: 800 18px Arial, sans-serif; fill: #fff; }
      .summary { font: 500 13px "Microsoft YaHei", Arial, sans-serif; fill: #475569; }
    </style>
  </defs>
  <rect width="640" height="430" rx="18" fill="#f8fafc"/>
  <rect x="24" y="48" width="592" height="348" rx="12" fill="#fff" stroke="#cbd5e1" stroke-width="2"/>
  <text x="30" y="30" class="title">S11 水壶电源线旁积水</text>
  <rect x="548" y="12" width="68" height="28" rx="14" fill="#dc2626"/>
  <text x="582" y="31" text-anchor="middle" font-family="Microsoft YaHei, Arial" font-size="14" font-weight="700" fill="#fff">风险</text>
  <rect x="55" y="75" width="500" height="150" rx="8" fill="#e2e8f0" stroke="#64748b" stroke-width="2"/><text x="65" y="97" class="label">counter</text>
<rect x="100" y="110" width="105" height="70" rx="8" fill="#bae6fd" stroke="#0284c7" stroke-width="2"/><text x="110" y="132" class="label">sink</text>
  <g><rect x="386" y="118" width="48" height="48" rx="12" fill="#64748b" stroke="#334155" stroke-width="2"/><path d="M434 134 q24 3 4 24 M396 114 H424" fill="none" stroke="#334155" stroke-width="4"/><text x="410" y="192" text-anchor="middle" class="object-label">电热水壶</text></g>
<g><ellipse cx="372" cy="175" rx="38" ry="14" fill="#38bdf8" opacity="0.7" stroke="#0284c7" stroke-width="2"/><text x="372" y="227" text-anchor="middle" class="object-label">积水</text></g>
<g><path d="M330 186 C370 155, 417 212, 465 170" fill="none" stroke="#111827" stroke-width="6" stroke-linecap="round"/><text x="395" y="222" text-anchor="middle" class="object-label">电源线</text></g>
<g><rect x="484" y="127" width="32" height="26" rx="4" fill="#f8fafc" stroke="#475569" stroke-width="2"/><circle cx="494" cy="140" r="2.5" fill="#475569"/><circle cx="506" cy="140" r="2.5" fill="#475569"/><text x="500" y="192" text-anchor="middle" class="object-label">插座</text></g>
  <text x="34" y="415" class="summary">电热水壶旁有积水，电源线经过潮湿区域。</text>
</svg>
