<svg xmlns="http://www.w3.org/2000/svg" viewBox="0 0 640 430" width="640" height="430" role="img" aria-label="桌下半遮挡电线">
  <defs>
    <style>
      .title { font: 700 22px "Microsoft YaHei", Arial, sans-serif; fill: #0f172a; }
      .label { font: 600 13px "Microsoft YaHei", Arial, sans-serif; fill: #334155; }
      .object-label { font: 700 14px "Microsoft YaHei", Arial, sans-serif; fill: #0f172a; }
      .tiny { font: 800 18px Arial, sans-serif; fill: #fff; }
      .summary { font: 500 13px "Microsoft YaHei", Arial, sans-serif; fill: #475569; }
    </style>
  </defs>
  <rect width="640" height="430" rx="18" fill="#f8fafc"/>
  <rect x="24" y="48" width="592" height="348" rx="12" fill="#fff" stroke="#cbd5e1" stroke-width="2"/>
  <text x="30" y="30" class="title">S12 桌下半遮挡电线</text>
  <rect x="548" y="12" width="68" height="28" rx="14" fill="#dc2626"/>
  <text x="582" y="31" text-anchor="middle" font-family="Microsoft YaHei, Arial" font-size="14" font-weight="700" fill="#fff">风险</text>
  <rect x="65" y="105" width="430" height="145" rx="8" fill="#ccfbf1" stroke="#0f766e" stroke-width="2"/><text x="75" y="127" class="label">lab bench</text>
<rect x="90" y="280" width="425" height="90" rx="8" fill="#f8fafc" stroke="#94a3b8" stroke-width="2"/><text x="100" y="302" class="label">walkway</text>
  <g><rect x="158" y="240" width="44" height="34" rx="6" fill="#0f766e" stroke="#134e4a" stroke-width="2"/><path d="M164 274 V294 M196 274 V294" stroke="#134e4a" stroke-width="3"/><text x="180" y="312" text-anchor="middle" class="object-label">椅子</text></g>
<g><path d="M185 321 C225 290, 272 347, 320 305" fill="none" stroke="#111827" stroke-width="6" stroke-linecap="round"/><text x="250" y="357" text-anchor="middle" class="object-label">电线</text></g>
<g><rect x="288" y="210" width="24" height="95" fill="#475569" opacity="0.86"/><text x="300" y="282" text-anchor="middle" class="object-label">桌腿遮挡</text></g>
  <text x="34" y="415" class="summary">桌下电线横跨通道但部分被桌腿遮挡，单视角容易漏检。</text>
</svg>
